<svg xmlns="http://www.w3.org/2000/svg" width="1340" height="1583" fill="none" viewBox="0 0 1340 1583"><path fill="#DC2626" fill-rule="evenodd" d="M0.522466 24.2086C-0.186483 57.2236 -0.118027 259.068 0.601938 260.014C1.18263 260.775 26.213 279.016 37.258 286.726C40.5045 288.992 50.7115 296.43 59.9396 303.253C74.911 314.325 99.4401 332.078 110.166 339.607C112.319 341.118 127.897 352.487 144.784 364.872C161.67 377.257 176.714 388.117 178.214 389.005C179.713 389.893 183.515 392.616 186.662 395.056C196.992 403.064 251.239 442.39 254.224 444.035C255.828 444.919 257.265 445.906 257.417 446.228C257.568 446.55 265.305 452.375 274.609 459.171C283.914 465.967 299.223 477.154 308.629 484.031C318.035 490.907 326.031 496.533 326.398 496.533C326.766 496.533 328.276 497.563 329.754 498.821C332.912 501.508 374.877 532.183 403.665 552.848C408.138 556.059 425.166 568.421 441.504 580.319C457.842 592.217 480.169 608.442 491.119 616.374C502.069 624.306 517.897 635.896 526.292 642.128C534.687 648.36 543.077 654.387 544.937 655.52C546.797 656.653 559.055 665.452 572.178 675.072C605.158 699.252 614.013 705.701 639.313 723.965C651.43 732.713 662.841 741.056 664.672 742.507C669.641 746.446 670.413 746.225 682.351 737.446C706.636 719.587 721.317 708.987 723.877 707.46C725.38 706.565 729.745 703.474 733.576 700.592C737.408 697.71 742.259 694.116 744.355 692.605C746.452 691.095 758.907 682.057 772.032 672.522C785.157 662.987 800.047 652.171 805.12 648.485C810.193 644.8 816.442 640.239 819.004 638.351C839.469 623.272 869.005 601.881 870.804 600.837C872.015 600.133 875.376 597.779 878.271 595.604C888.422 587.982 921.898 563.424 931.632 556.459C948.004 544.744 957.904 537.556 984.883 517.798C999.084 507.397 1012.65 497.627 1015.03 496.087C1017.41 494.548 1023.43 490.222 1028.41 486.473C1041.85 476.347 1084.91 444.957 1089.08 442.237C1091.08 440.938 1104.89 430.936 1119.77 420.011C1151.98 396.363 1159.57 390.858 1166.21 386.317C1168.97 384.435 1171.4 382.713 1171.61 382.493C1172.63 381.461 1230.33 339.498 1238.5 333.856C1241.31 331.913 1244.32 329.762 1245.18 329.077C1249.34 325.786 1306.12 284.433 1308.52 282.948C1310.02 282.014 1311.8 280.782 1312.47 280.211C1313.14 279.639 1318.62 275.617 1324.64 271.273C1330.67 266.93 1336.59 262.549 1337.8 261.54L1340 259.704V129.852V0H1337.71C1335.93 0 1332.75 1.96278 1323.26 8.92798C1316.57 13.8384 1310.89 17.856 1310.63 17.856C1310.05 17.856 1284.76 36.2881 1252.68 60.0922C1246.06 65.0026 1239.35 69.7928 1237.77 70.7371C1234.46 72.7074 1206.07 93.4176 1200.81 97.7023C1199.77 98.5471 1197.95 99.8561 1196.76 100.611C1195.58 101.367 1188.1 106.79 1180.16 112.663C1172.21 118.536 1164.47 124.095 1162.96 125.016C1159.94 126.852 1126.06 151.449 1124.8 152.727C1123.5 154.033 1090.69 177.873 1090.19 177.873C1089.93 177.873 1082.21 183.34 1073.03 190.022C1052.55 204.935 1054.08 203.798 1048.87 207.889C1042.36 212.991 1021.02 228.448 1018.03 230.226C1015.43 231.772 993.2 247.825 988.673 251.426C982.31 256.488 947.093 282.11 943.429 284.343C940.899 285.886 934.686 290.423 899.491 316.434C892.714 321.443 883.341 328.242 878.662 331.543C871.133 336.856 854.368 348.797 849.047 352.637C847.987 353.403 845.509 355.292 843.539 356.837C837.017 361.953 800.363 388.599 798.109 389.863C796.125 390.976 778.942 403.389 771.897 408.801C764.894 414.179 726.349 442.169 723.899 443.656C722.384 444.575 715.657 449.405 708.949 454.39C665.49 486.686 671.267 483.803 662.695 477.475C630.206 453.493 618.762 445.156 616.631 443.92C615.258 443.123 607.876 437.869 600.228 432.245C592.58 426.621 576.559 414.834 564.626 406.052C552.693 397.269 542.71 390.084 542.442 390.084C542.026 390.084 530.404 381.686 514.883 370.168C494.879 355.324 471.927 338.654 469.354 337.1C467.623 336.055 461.604 331.775 455.978 327.59C431.327 309.254 399.29 285.879 396.352 284.086C394.592 283.012 388.942 278.995 383.796 275.158C359.022 256.686 323.457 230.754 322.899 230.754C322.37 230.754 309.358 221.448 308.051 220.134C306.692 218.769 253.107 179.747 250.312 178.087C247.69 176.531 243.656 173.632 235.677 167.571C233.439 165.872 230.75 163.861 229.7 163.105C228.651 162.348 222.304 157.703 215.596 152.783C184.693 130.117 178.709 125.8 175.433 123.813C173.504 122.644 168.562 119.108 164.451 115.955C151.946 106.365 106.605 73.4258 98.1638 67.7991C95.4563 65.9943 91.7833 63.3674 90.0011 61.9616C81.958 55.6165 30.901 18.4363 28.4099 17.1094C27.2823 16.5092 24.4119 14.4805 22.0317 12.6015C10.6964 3.65292 5.22388 0 3.15447 0H1.04179L0.522466 24.2086ZM0.522466 354.145C0.235267 354.396 0 522.233 0 727.117V1099.63L2.55725 1101.57C7.69379 1105.48 40.6225 1129.48 44.0296 1131.8C47.9583 1134.48 48.0032 1134.52 86.1597 1162.37C101.307 1173.42 114.634 1183.23 115.777 1184.15C116.92 1185.08 119.044 1186.49 120.498 1187.27C121.952 1188.06 123.954 1189.37 124.946 1190.18C126.924 1191.79 126.134 1191.21 158.184 1214.63C185.272 1234.42 184.472 1233.84 224.251 1262.66C241.778 1275.36 257.535 1286.9 259.266 1288.3C260.997 1289.7 263.653 1291.59 265.167 1292.51C266.682 1293.43 278.544 1301.93 291.527 1311.4C304.51 1320.87 318.527 1331.1 322.678 1334.13C326.828 1337.15 331.608 1340.74 333.3 1342.11C334.992 1343.47 337.648 1345.34 339.2 1346.26C341.772 1347.78 348.725 1352.82 390.99 1383.77C398.523 1389.28 406.446 1395.03 408.599 1396.54C415.481 1401.38 459.566 1433.43 469.56 1440.87C474.868 1444.82 480.835 1449.13 482.823 1450.45C486.91 1453.17 538.257 1490.49 548.313 1498.05C551.925 1500.77 556.528 1504.05 558.542 1505.35C560.554 1506.65 574.241 1516.53 588.955 1527.32C603.669 1538.1 616.557 1547.55 617.597 1548.31C618.635 1549.07 620.76 1550.71 622.318 1551.95C623.875 1553.19 626.689 1555.2 628.569 1556.41C630.451 1557.63 639.553 1564.11 648.798 1570.81L665.605 1583H670.059H674.513L690.873 1571.15C699.87 1564.64 708.794 1558.31 710.703 1557.09C712.612 1555.87 716.111 1553.4 718.479 1551.6C720.847 1549.79 724.695 1546.93 727.031 1545.23C729.366 1543.53 732.715 1541.03 734.473 1539.67C742.011 1533.84 777.927 1507.78 780.87 1506.01C782.643 1504.94 788.586 1500.73 794.076 1496.66C825.032 1473.71 852.205 1453.9 855.302 1452.03C858.381 1450.18 866.59 1444.24 875.76 1437.23C880.697 1433.46 921.726 1403.44 924.151 1401.82C931.183 1397.14 938.015 1392.27 947.83 1384.95C970.05 1368.39 1000.27 1346.4 1001.27 1346.07C1001.83 1345.88 1008.08 1341.4 1015.16 1336.12C1035.97 1320.57 1071.72 1294.5 1074.39 1292.92C1076.99 1291.37 1081.41 1288.2 1091.27 1280.78C1105.36 1270.19 1146.28 1240.43 1148.88 1238.89C1151.51 1237.34 1155.13 1234.69 1164.42 1227.53C1170.04 1223.21 1220.54 1186.75 1225.21 1183.64C1227.49 1182.13 1231.62 1179.12 1234.4 1176.95C1241.49 1171.4 1290.01 1136 1293.94 1133.51C1297.06 1131.53 1303.28 1127.05 1307.63 1123.64C1308.77 1122.75 1316.52 1117.06 1324.85 1111.01L1340 1099.99V726.815V353.637L1338.38 354.393C1337.49 354.809 1336.58 355.575 1336.35 356.097C1336.12 356.619 1328.81 362.238 1320.11 368.586C1311.41 374.933 1302.03 381.826 1299.26 383.903C1296.48 385.981 1292.61 388.714 1290.65 389.978C1288.69 391.241 1280.58 397.036 1272.63 402.855C1264.67 408.674 1251.53 418.273 1243.41 424.187C1235.3 430.101 1228.07 435.432 1227.34 436.034C1226.61 436.635 1224.13 438.447 1221.83 440.06C1214.39 445.272 1160.16 484.62 1158.08 486.311C1153.17 490.317 1151.29 491.685 1144.04 496.533C1136.77 501.398 1094.02 532.439 1085.39 539.112C1078.62 544.354 1073.08 548.333 1070.96 549.484C1069.84 550.089 1060.61 556.68 1050.44 564.132C1040.27 571.584 1029.34 579.587 1026.14 581.918C1022.95 584.249 1019.41 586.894 1018.28 587.795C1014.16 591.066 998.87 602.1 997.616 602.705C996.26 603.36 946.645 639.403 943.768 641.824C940.871 644.26 928.212 653.477 925.362 655.224C922.664 656.878 890.902 679.897 884.768 684.644C877.151 690.538 853.519 707.705 851.555 708.771C849.128 710.088 826.747 726.381 802.577 744.427C793.701 751.054 784.57 757.711 782.287 759.222C778.299 761.86 745.798 785.327 733.303 794.59C713.883 808.986 706.286 814.496 702.052 817.254C699.443 818.953 690.81 825.093 682.867 830.896L668.426 841.447L668.033 974.905C667.816 1048.31 667.832 1109.08 668.068 1109.95C668.964 1113.26 671.611 1111.8 693.275 1096.08C749.427 1055.34 778.861 1033.88 781.732 1031.59C783.463 1030.22 786.119 1028.34 787.634 1027.43C789.148 1026.52 805.613 1014.64 824.222 1001.03C862.887 972.754 858.815 975.706 862.474 973.302C867.471 970.018 919.877 931.602 925.191 927.327C926.235 926.488 928.65 924.788 930.557 923.55C932.465 922.312 946.191 912.465 961.061 901.668C987.159 882.718 993.002 878.432 1000.78 872.537C1002.78 871.026 1005.54 869.096 1006.93 868.248C1010.22 866.235 1057.05 832.196 1060.81 829.082C1066.63 824.266 1066.18 816.176 1066.17 925.913C1066.16 980.034 1065.87 1024.71 1065.51 1025.2C1065.16 1025.68 1063.75 1026.61 1062.39 1027.26C1060.37 1028.22 1036.76 1045.11 1026.57 1052.88C1018.23 1059.24 1003.83 1069.82 996.273 1075.14C983.103 1084.4 962.624 1099.24 934.606 1119.83C925.827 1126.28 916.165 1133.22 913.136 1135.24C908.069 1138.63 895.393 1147.78 890.71 1151.43C881.038 1158.96 845.269 1184.97 838.27 1189.57C832.653 1193.25 823.291 1200.07 815.667 1206.03C810.971 1209.69 770.996 1238.64 761.937 1244.93C758.543 1247.29 752.338 1251.77 748.147 1254.89C735.9 1264.01 699.347 1290.66 696.55 1292.52C695.141 1293.45 688.714 1298 682.27 1302.63C675.826 1307.25 670.349 1311.04 670.099 1311.04C669.85 1311.04 664.397 1307.25 657.982 1302.63C651.568 1298 645.386 1293.6 644.245 1292.84C639.891 1289.96 619.516 1275.32 616.888 1273.19C615.373 1271.96 604.486 1263.98 592.692 1255.46C573.85 1241.84 551.749 1225.83 538.581 1216.27C536.241 1214.57 527.143 1207.9 518.364 1201.46C509.585 1195.01 500.985 1188.84 499.254 1187.73C496.635 1186.07 491.237 1182.23 480.37 1174.31C479.504 1173.68 476.849 1171.63 474.469 1169.76C468.949 1165.42 429.049 1136.5 423.324 1132.68C420.943 1131.1 414.393 1126.39 408.767 1122.21C395.056 1112.04 353.887 1082.15 342.978 1074.45C338.161 1071.05 333.112 1067.37 331.757 1066.26C330.403 1065.16 324.869 1061.03 319.46 1057.08C314.05 1053.14 303.481 1045.38 295.973 1039.86C288.465 1034.33 280.598 1028.88 278.491 1027.75L274.659 1025.69L274.634 789.358L274.609 553.028L266.417 547.272C261.911 544.107 245.712 532.332 230.419 521.108C215.125 509.883 201.728 500.054 200.646 499.267C199.564 498.479 196.504 496.383 193.847 494.609C191.189 492.834 182.514 486.608 174.569 480.773C166.623 474.936 154.812 466.295 148.321 461.569C141.829 456.843 134.117 451.116 131.182 448.842C128.248 446.569 125.185 444.393 124.374 444.008C123.039 443.374 81.3395 413.108 65.6915 401.416C62.1522 398.772 57.2462 395.218 54.7881 393.518C43.7353 385.875 8.65846 360.202 5.04683 357.112C2.84602 355.229 0.810452 353.894 0.522466 354.145Z" clip-rule="evenodd"/></svg>